<?xml version="1.0" standalone="no"?>
<!DOCTYPE svg PUBLIC "-//W3C//DTD SVG 20010904//EN"
 "http://www.w3.org/TR/2001/REC-SVG-20010904/DTD/svg10.dtd">
<svg version="1.0" xmlns="http://www.w3.org/2000/svg"
 width="512.000000pt" height="512.000000pt" viewBox="0 0 512.000000 512.000000"
 preserveAspectRatio="xMidYMid meet">

<g transform="translate(0.000000,512.000000) scale(0.100000,-0.100000)"
fill="#000000" stroke="none" shape-rendering="geometricPrecision">
<path d="M1685 4140 c-211 -33 -435 -152 -635 -336 -32 -30 -62 -54 -66 -55
-15 -1 -135 -150 -200 -249 -119 -182 -240 -441 -297 -640 -36 -124 -67 -318
-72 -450 -4 -109 -3 -111 6 -45 42 292 92 481 185 704 86 205 247 484 336 583
99 111 342 289 482 354 156 71 382 109 510 85 81 -15 156 -51 210 -101 51 -47
90 -105 82 -119 -3 -5 -38 1 -79 14 -268 85 -488 71 -732 -46 -189 -91 -258
-149 -446 -372 -145 -172 -207 -259 -260 -367 -93 -186 -213 -516 -264 -720
-9 -36 -20 -76 -24 -90 -5 -14 -16 -79 -26 -145 -23 -171 -35 -247 -41 -267
-3 -10 -20 -20 -40 -24 -29 -5 -34 -10 -34 -34 0 -28 -1 -28 -36 -19 -72 20
-175 -62 -206 -164 -19 -64 -14 -235 11 -370 26 -146 133 -554 172 -660 15
-43 42 -101 59 -128 17 -28 41 -78 54 -112 20 -54 66 -142 66 -127 0 3 -9 29
-20 58 -11 29 -20 59 -20 67 0 25 37 -4 51 -40 35 -89 93 -204 100 -199 5 3 9
29 9 59 0 76 18 233 39 340 17 86 18 88 25 50 40 -235 71 -374 81 -363 1 2 -1
48 -7 103 -5 55 -6 202 -2 326 l6 226 50 -21 50 -21 -6 -45 c-22 -175 -15
-398 17 -539 11 -47 12 -26 13 185 1 212 12 366 28 382 3 3 36 -1 73 -7 115
-21 536 -26 693 -7 232 27 408 81 478 149 66 63 142 232 172 382 22 115 33
146 61 185 81 111 245 104 314 -13 13 -24 34 -86 44 -138 38 -180 107 -344
172 -410 74 -75 235 -126 481 -155 171 -19 585 -15 706 9 71 13 74 13 88 -7
80 -114 169 -228 203 -261 l42 -40 -6 -95 c-4 -52 -15 -147 -26 -210 -10 -63
-17 -116 -15 -117 4 -4 150 370 181 465 15 45 29 82 32 82 3 0 2 -33 -2 -72
-10 -106 -56 -275 -113 -416 -83 -204 -6 -138 107 93 71 144 108 247 167 465
25 90 48 167 51 170 11 10 -9 -187 -29 -279 -22 -104 -76 -267 -114 -345 l-25
-51 26 30 c14 17 50 71 80 121 30 51 78 116 107 146 29 30 68 82 86 116 80
150 187 507 222 745 11 72 23 139 26 147 9 26 5 215 -7 271 -19 89 -61 153
-121 185 -35 18 -109 18 -155 -1 -20 -8 -37 -14 -38 -13 -1 2 -12 57 -23 123
-56 326 -121 583 -172 685 -10 19 -36 97 -59 174 -135 448 -317 708 -651 931
-300 201 -682 302 -1037 275 -246 -19 -397 -67 -517 -165 l-55 -45 -30 43
c-57 83 -139 144 -231 172 -67 19 -233 27 -315 15z m1452 -76 c-3 -3 -12 -4
-19 -1 -8 3 -5 6 6 6 11 1 17 -2 13 -5z m182 -30 c474 -106 861 -406 1070
-829 56 -112 126 -293 118 -302 -2 -2 -28 50 -58 114 -31 69 -100 187 -163
283 -128 193 -250 323 -411 436 -112 80 -358 210 -399 212 -5 0 -12 5 -15 10
-7 11 -169 65 -256 86 -40 10 -50 15 -31 15 16 1 81 -11 145 -25z m-785 -659
c8 -30 41 -33 88 -9 27 14 37 15 66 4 22 -8 54 -10 87 -5 42 5 59 3 79 -10 23
-16 30 -16 70 -2 41 14 46 14 77 -5 30 -19 39 -19 104 -8 126 21 154 -4 225
-205 29 -82 120 -416 120 -440 0 -6 -39 -24 -87 -39 -87 -28 -245 -102 -320
-149 -21 -13 -64 -49 -96 -79 -47 -44 -57 -60 -57 -87 0 -18 4 -31 8 -29 4 2
57 29 118 60 112 58 342 141 427 153 45 7 46 6 53 -21 4 -16 33 -128 63 -250
l57 -221 -156 -6 c-285 -11 -519 -59 -722 -148 -103 -45 -204 -62 -333 -56
-115 5 -144 12 -322 81 -228 89 -431 121 -770 120 l-252 0 6 26 c3 14 36 135
72 270 l67 245 85 -1 c183 -3 435 -74 652 -182 124 -63 137 -67 137 -48 0 61
-134 178 -295 259 -152 75 -282 107 -442 107 -51 0 -93 3 -93 6 0 3 29 103 64
222 35 120 67 239 71 265 10 65 35 94 87 101 24 3 63 8 88 11 25 4 59 13 77
21 40 18 111 18 156 -1 49 -20 80 -19 102 5 14 15 31 20 69 20 28 0 58 0 66 0
8 1 67 -2 130 -6 128 -7 239 6 304 36 55 25 63 24 70 -5z m901 -197 c87 -72
268 -267 352 -379 86 -115 96 -104 -100 -102 l-172 2 -62 203 c-34 112 -77
240 -97 286 -24 59 -30 80 -18 70 9 -7 53 -43 97 -80z m-2121 -129 c-48 -167
-105 -343 -113 -351 -3 -3 -40 -13 -82 -20 l-76 -14 14 35 c23 54 71 148 116
226 49 86 167 258 173 252 2 -2 -12 -60 -32 -128z m-198 -635 c-24 -82 -58
-206 -76 -275 l-32 -126 -85 -12 c-47 -7 -88 -10 -91 -7 -7 8 20 106 85 311
76 241 65 221 136 239 63 16 100 23 104 21 1 -1 -17 -68 -41 -151z m2816 141
c23 -9 142 -249 217 -440 33 -82 58 -151 56 -153 -1 -2 -49 6 -106 16 -97 19
-262 39 -354 45 l-40 2 -74 258 c-40 142 -71 260 -68 263 20 21 320 28 369 9z
m1004 -674 c57 -35 69 -78 69 -241 0 -139 -14 -260 -49 -425 -24 -113 -93
-374 -119 -450 l-24 -70 1 430 c1 357 -2 457 -17 588 -10 87 -16 165 -13 173
8 22 113 19 152 -5z m-1256 -73 c5 -13 36 -106 68 -208 71 -222 129 -371 211
-544 34 -71 59 -131 57 -133 -11 -12 -132 -24 -292 -29 -365 -13 -730 43 -812
126 -35 34 -68 97 -58 107 4 4 213 9 464 9 252 1 462 2 467 3 32 7 -166 52
-270 62 l-124 12 33 38 c43 50 56 94 63 209 9 151 -35 261 -135 337 l-44 33
181 0 c179 0 182 0 191 -22z m-2230 7 c0 -2 -12 -30 -26 -61 -43 -94 -60 -199
-47 -287 12 -87 62 -203 104 -243 16 -15 29 -31 29 -35 0 -3 -28 -9 -62 -13
-35 -3 -97 -12 -138 -20 -71 -13 -58 -14 251 -15 329 -1 479 -8 479 -21 0 -23
-71 -108 -105 -127 -97 -54 -319 -91 -595 -100 -281 -8 -510 16 -510 55 0 44
165 818 179 841 4 5 47 14 96 19 96 10 345 15 345 7z m266 -21 c177 -35 350
-113 397 -178 30 -43 34 -128 8 -246 -11 -52 -26 -113 -34 -135 -16 -46 20
-43 -305 -30 l-202 8 -41 44 c-22 24 -53 73 -70 109 -34 76 -38 155 -15 266
17 75 33 111 70 151 30 33 73 35 192 11z m2267 -23 c85 -22 168 -46 184 -54
15 -8 49 -20 75 -27 26 -7 52 -18 56 -24 5 -6 17 -47 26 -91 15 -74 15 -88 1
-185 -33 -217 -80 -348 -150 -408 -60 -53 -69 -47 -131 83 -71 148 -147 345
-218 562 -31 94 -56 174 -56 177 0 14 69 3 213 -33z m-682 1 c103 -53 152
-169 130 -307 -19 -112 -32 -145 -83 -200 l-48 -53 -122 -7 c-68 -4 -167 -13
-220 -21 -142 -20 -133 -23 -157 49 -24 73 -45 171 -60 280 -14 97 -2 127 67
179 98 74 200 106 343 107 87 1 102 -2 150 -27z m-2355 -15 c-19 -79 -120
-546 -142 -664 -15 -80 -32 -143 -38 -143 -20 0 -75 39 -87 61 -25 47 8 386
61 626 10 47 22 89 27 94 8 8 147 47 172 48 9 1 11 -6 7 -22z m-664 -115 c2
-65 0 -137 -4 -162 -4 -25 -8 -218 -8 -430 -2 -441 5 -433 -84 -88 -30 114
-66 237 -82 275 -23 57 -28 87 -32 191 -6 156 6 213 56 270 38 44 99 74 133
65 15 -4 18 -20 21 -121z m4068 -845 c-6 -122 -13 -223 -15 -225 -4 -4 -109
154 -153 230 l-21 38 37 19 c52 26 95 73 129 138 17 33 29 47 31 37 2 -9 -1
-116 -8 -237z m-4033 -174 c-3 -10 -5 -2 -5 17 0 19 2 27 5 18 2 -10 2 -26 0
-35z m10 -80 c-3 -10 -5 -2 -5 17 0 19 2 27 5 18 2 -10 2 -26 0 -35z"/>
<path d="M1802 1664 c-75 -75 -62 -166 30 -212 60 -30 109 -22 156 24 38 38
42 76 13 132 -29 57 -64 84 -115 89 -43 5 -48 3 -84 -33z m168 -19 c6 -8 14
-31 17 -52 6 -51 -22 -83 -76 -83 -67 0 -102 71 -61 123 17 22 30 27 65 27 25
0 47 -6 55 -15z"/>
<path d="M2944 1680 c-38 -15 -34 -26 7 -22 55 6 79 -17 79 -75 0 -38 -4 -46
-32 -63 -40 -25 -74 -19 -105 16 -27 29 -29 61 -7 92 8 12 13 22 9 22 -14 0
-45 -68 -45 -100 0 -40 28 -88 62 -106 97 -54 218 45 188 155 -19 72 -89 108
-156 81z"/>
<path d="M2297 866 c-99 -26 -194 -73 -250 -123 -44 -39 -39 -40 46 -9 230 87
548 78 782 -24 l50 -21 -34 35 c-43 45 -177 111 -273 135 -126 32 -220 34
-321 7z"/>
</g>
</svg>
